<?xml version="1.0" encoding="utf-8"?>
<!-- Generator: Adobe Illustrator 23.1.1, SVG Export Plug-In . SVG Version: 6.00 Build 0)  -->
<svg version="1.1" id="Livello_1" xmlns="http://www.w3.org/2000/svg" xmlns:xlink="http://www.w3.org/1999/xlink" x="0px" y="0px"
	 viewBox="0 0 18.7 21" style="enable-background:new 0 0 18.7 21;" xml:space="preserve">
<style type="text/css">
	.st0{fill:#61A9FC;}
</style>
<title>Risorsa 1</title>
<g>
	<g id="Livello_1-2">
		<g id="Group_487">
			<g id="Path_64">
				<path class="st0" d="M18.2,21H6.7c-0.3,0-0.5-0.2-0.5-0.5V8.9c0-0.3,0.2-0.5,0.5-0.5H10V5c0-0.3,0.2-0.5,0.5-0.5h7.6
					c0.3,0,0.5,0.2,0.5,0.5v15.5C18.6,20.8,18.4,21,18.2,21z M7.2,20h10.4V5.5h-6.6v3.5c0,0.3-0.2,0.5-0.5,0.5H7.2V20z"/>
			</g>
			<g id="Line_84">
				<rect x="5.9" y="6.4" transform="matrix(0.6943 -0.7197 0.7197 0.6943 -2.3551 8.3555)" class="st0" width="5.5" height="1"/>
			</g>
			<g id="Group_209">
				<g id="Path_65">
					<path class="st0" d="M6.7,16.5H0.5C0.2,16.5,0,16.3,0,16c0,0,0,0,0,0V4.5C0,4.2,0.2,4,0.5,4h3.3l0-3.5C3.8,0.2,4.1,0,4.3,0h7.6
						c0.3,0,0.5,0.2,0.5,0.5V5h-1V1H4.8v3.5C4.8,4.8,4.6,5,4.3,5H1v10.6h5.7V16.5z"/>
				</g>
				<g id="Line_85">
					<rect x="-0.3" y="2" transform="matrix(0.6943 -0.7197 0.7197 0.6943 -1.0494 2.5036)" class="st0" width="5.5" height="1"/>
				</g>
			</g>
		</g>
	</g>
</g>
</svg>
